<svg width="760" height="337" viewBox="0 0 760 337" fill="none" xmlns="http://www.w3.org/2000/svg">
<path d="M155.677 51.1107C204.228 -53.1745 243.407 69.5845 267.623 117.021C302.043 184.448 387.301 244.6 184.971 265.011C-17.3584 285.422 94.9891 181.467 155.677 51.1107Z" fill="#E2E9F0"/>
<rect x="197.25" y="24.25" width="503.5" height="223.5" rx="23.75" fill="#FEFEFE" fill-opacity="0.1"/>
<rect x="197.25" y="24.25" width="503.5" height="223.5" rx="23.75" stroke="#005AE2" stroke-width="0.5"/>
<path d="M307 87.3333H317C319.189 87.3333 321.356 87.7643 323.378 88.6019C325.4 89.4395 327.237 90.6672 328.785 92.2148C330.333 93.7624 331.56 95.5998 332.398 97.6219C333.236 99.644 333.667 101.811 333.667 104C333.667 106.189 333.236 108.356 332.398 110.378C331.56 112.4 330.333 114.237 328.785 115.785C327.237 117.333 325.4 118.56 323.378 119.398C321.356 120.235 319.189 120.667 317 120.667H307M287 120.667H277C274.811 120.667 272.644 120.235 270.622 119.398C268.6 118.56 266.763 117.333 265.215 115.785C262.089 112.659 260.333 108.42 260.333 104C260.333 99.5796 262.089 95.3404 265.215 92.2148C268.34 89.0892 272.58 87.3333 277 87.3333H287" stroke="#141414" stroke-width="2" stroke-linecap="round" stroke-linejoin="round"/>
<path d="M283.667 104H310.333" stroke="#141414" stroke-width="2" stroke-linecap="round" stroke-linejoin="round"/>
<path d="M379 87.3333H389C391.189 87.3333 393.356 87.7643 395.378 88.6019C397.4 89.4395 399.237 90.6672 400.785 92.2148C402.333 93.7624 403.56 95.5998 404.398 97.6219C405.236 99.644 405.667 101.811 405.667 104C405.667 106.189 405.236 108.356 404.398 110.378C403.56 112.4 402.333 114.237 400.785 115.785C399.237 117.333 397.4 118.56 395.378 119.398C393.356 120.235 391.189 120.667 389 120.667H379M359 120.667H349C346.811 120.667 344.644 120.235 342.622 119.398C340.6 118.56 338.763 117.333 337.215 115.785C334.089 112.659 332.333 108.42 332.333 104C332.333 99.5796 334.089 95.3404 337.215 92.2148C340.34 89.0892 344.58 87.3333 349 87.3333H359" stroke="#141414" stroke-width="2" stroke-linecap="round" stroke-linejoin="round"/>
<path d="M355.667 104H382.333" stroke="#141414" stroke-width="2" stroke-linecap="round" stroke-linejoin="round"/>
<path d="M451 87.3333H461C463.189 87.3333 465.356 87.7643 467.378 88.6019C469.4 89.4395 471.237 90.6672 472.785 92.2148C474.333 93.7624 475.56 95.5998 476.398 97.6219C477.236 99.644 477.667 101.811 477.667 104C477.667 106.189 477.236 108.356 476.398 110.378C475.56 112.4 474.333 114.237 472.785 115.785C471.237 117.333 469.4 118.56 467.378 119.398C465.356 120.235 463.189 120.667 461 120.667H451M431 120.667H421C418.811 120.667 416.644 120.235 414.622 119.398C412.6 118.56 410.763 117.333 409.215 115.785C406.089 112.659 404.333 108.42 404.333 104C404.333 99.5796 406.089 95.3404 409.215 92.2148C412.34 89.0892 416.58 87.3333 421 87.3333H431" stroke="#141414" stroke-width="2" stroke-linecap="round" stroke-linejoin="round"/>
<path d="M427.667 104H454.333" stroke="#141414" stroke-width="2" stroke-linecap="round" stroke-linejoin="round"/>
<path d="M501 103C500.448 103 500 103.448 500 104C500 104.552 500.448 105 501 105V103ZM541 104L531 98.2265V109.774L541 104ZM501 105H532V103H501V105Z" fill="#005AE2"/>
<path d="M611 87.3333H621C623.189 87.3333 625.356 87.7643 627.378 88.6019C629.4 89.4395 631.237 90.6672 632.785 92.2148C634.333 93.7624 635.56 95.5998 636.398 97.6219C637.236 99.644 637.667 101.811 637.667 104C637.667 106.189 637.236 108.356 636.398 110.378C635.56 112.4 634.333 114.237 632.785 115.785C631.237 117.333 629.4 118.56 627.378 119.398C625.356 120.235 623.189 120.667 621 120.667H611M591 120.667H581C578.811 120.667 576.644 120.235 574.622 119.398C572.6 118.56 570.763 117.333 569.215 115.785C566.089 112.659 564.333 108.42 564.333 104C564.333 99.5796 566.089 95.3404 569.215 92.2148C572.34 89.0892 576.58 87.3333 581 87.3333H591" stroke="#141414" stroke-width="2" stroke-linecap="round" stroke-linejoin="round"/>
<path d="M587.667 104H614.333" stroke="#141414" stroke-width="2" stroke-linecap="round" stroke-linejoin="round"/>
<path d="M406.558 176.208C405.513 176.208 404.617 175.963 403.87 175.472C403.134 174.981 402.617 174.309 402.318 173.456L403.598 172.72C404.036 174.075 405.033 174.752 406.59 174.752C407.358 174.752 407.945 174.597 408.35 174.288C408.756 173.968 408.958 173.547 408.958 173.024C408.958 172.491 408.756 172.091 408.35 171.824C407.945 171.557 407.268 171.275 406.318 170.976C405.849 170.827 405.492 170.709 405.246 170.624C405.001 170.528 404.692 170.389 404.318 170.208C403.956 170.016 403.684 169.824 403.502 169.632C403.321 169.429 403.156 169.168 403.006 168.848C402.868 168.528 402.798 168.165 402.798 167.76C402.798 166.789 403.14 166.021 403.822 165.456C404.505 164.88 405.337 164.592 406.318 164.592C407.204 164.592 407.972 164.816 408.622 165.264C409.284 165.712 409.78 166.304 410.11 167.04L408.862 167.76C408.382 166.608 407.534 166.032 406.318 166.032C405.71 166.032 405.22 166.181 404.846 166.48C404.473 166.779 404.286 167.184 404.286 167.696C404.286 168.187 404.462 168.56 404.814 168.816C405.166 169.072 405.774 169.339 406.638 169.616C406.948 169.712 407.166 169.781 407.294 169.824C407.422 169.867 407.62 169.941 407.886 170.048C408.164 170.155 408.366 170.24 408.494 170.304C408.622 170.368 408.793 170.459 409.006 170.576C409.23 170.693 409.396 170.805 409.502 170.912C409.609 171.019 409.732 171.152 409.87 171.312C410.02 171.461 410.126 171.616 410.19 171.776C410.254 171.936 410.308 172.123 410.35 172.336C410.404 172.539 410.43 172.757 410.43 172.992C410.43 173.973 410.073 174.757 409.358 175.344C408.644 175.92 407.71 176.208 406.558 176.208ZM413.212 172.64C413.35 173.355 413.676 173.909 414.188 174.304C414.71 174.699 415.35 174.896 416.108 174.896C417.164 174.896 417.932 174.507 418.412 173.728L419.596 174.4C418.817 175.605 417.644 176.208 416.076 176.208C414.806 176.208 413.772 175.813 412.972 175.024C412.182 174.224 411.788 173.216 411.788 172C411.788 170.795 412.177 169.792 412.956 168.992C413.734 168.192 414.742 167.792 415.98 167.792C417.153 167.792 418.108 168.208 418.844 169.04C419.59 169.861 419.964 170.853 419.964 172.016C419.964 172.219 419.948 172.427 419.916 172.64H413.212ZM415.98 169.104C415.233 169.104 414.614 169.317 414.124 169.744C413.633 170.16 413.329 170.72 413.212 171.424H418.556C418.438 170.667 418.14 170.091 417.66 169.696C417.18 169.301 416.62 169.104 415.98 169.104ZM428.172 168H429.564V176H428.172V174.624C427.479 175.68 426.471 176.208 425.148 176.208C424.028 176.208 423.074 175.803 422.284 174.992C421.495 174.171 421.1 173.173 421.1 172C421.1 170.827 421.495 169.835 422.284 169.024C423.074 168.203 424.028 167.792 425.148 167.792C426.471 167.792 427.479 168.32 428.172 169.376V168ZM425.324 174.864C426.135 174.864 426.812 174.592 427.356 174.048C427.9 173.493 428.172 172.811 428.172 172C428.172 171.189 427.9 170.512 427.356 169.968C426.812 169.413 426.135 169.136 425.324 169.136C424.524 169.136 423.852 169.413 423.308 169.968C422.764 170.512 422.492 171.189 422.492 172C422.492 172.811 422.764 173.493 423.308 174.048C423.852 174.592 424.524 174.864 425.324 174.864ZM440.313 167.792C441.209 167.792 441.935 168.085 442.489 168.672C443.044 169.248 443.321 170.032 443.321 171.024V176H441.929V171.072C441.929 170.453 441.769 169.973 441.449 169.632C441.129 169.291 440.703 169.12 440.169 169.12C439.572 169.12 439.092 169.323 438.729 169.728C438.377 170.123 438.201 170.731 438.201 171.552V176H436.809V171.072C436.809 170.453 436.655 169.973 436.345 169.632C436.047 169.291 435.636 169.12 435.113 169.12C434.527 169.12 434.036 169.323 433.641 169.728C433.257 170.133 433.065 170.741 433.065 171.552V176H431.673V168H433.065V169.072C433.609 168.219 434.404 167.792 435.449 167.792C436.527 167.792 437.311 168.245 437.801 169.152C438.356 168.245 439.193 167.792 440.313 167.792ZM445.251 176V164.32H446.643V176H445.251ZM449.743 172.64C449.882 173.355 450.207 173.909 450.719 174.304C451.242 174.699 451.882 174.896 452.639 174.896C453.695 174.896 454.463 174.507 454.943 173.728L456.127 174.4C455.348 175.605 454.175 176.208 452.607 176.208C451.338 176.208 450.303 175.813 449.503 175.024C448.714 174.224 448.319 173.216 448.319 172C448.319 170.795 448.708 169.792 449.487 168.992C450.266 168.192 451.274 167.792 452.511 167.792C453.684 167.792 454.639 168.208 455.375 169.04C456.122 169.861 456.495 170.853 456.495 172.016C456.495 172.219 456.479 172.427 456.447 172.64H449.743ZM452.511 169.104C451.764 169.104 451.146 169.317 450.655 169.744C450.164 170.16 449.86 170.72 449.743 171.424H455.087C454.97 170.667 454.671 170.091 454.191 169.696C453.711 169.301 453.151 169.104 452.511 169.104ZM458.983 170.16C458.983 170.469 459.137 170.72 459.447 170.912C459.756 171.093 460.129 171.243 460.567 171.36C461.004 171.467 461.441 171.595 461.879 171.744C462.316 171.883 462.689 172.128 462.999 172.48C463.308 172.821 463.463 173.264 463.463 173.808C463.463 174.533 463.18 175.115 462.615 175.552C462.06 175.989 461.345 176.208 460.471 176.208C459.692 176.208 459.025 176.037 458.471 175.696C457.916 175.355 457.521 174.901 457.287 174.336L458.487 173.648C458.615 174.032 458.855 174.336 459.207 174.56C459.559 174.784 459.98 174.896 460.471 174.896C460.929 174.896 461.308 174.811 461.607 174.64C461.905 174.459 462.055 174.181 462.055 173.808C462.055 173.499 461.9 173.253 461.591 173.072C461.281 172.88 460.908 172.731 460.471 172.624C460.033 172.507 459.596 172.373 459.159 172.224C458.721 172.075 458.348 171.829 458.039 171.488C457.729 171.147 457.575 170.709 457.575 170.176C457.575 169.483 457.841 168.912 458.375 168.464C458.919 168.016 459.596 167.792 460.407 167.792C461.057 167.792 461.633 167.941 462.135 168.24C462.647 168.528 463.031 168.933 463.287 169.456L462.119 170.112C461.831 169.429 461.26 169.088 460.407 169.088C460.012 169.088 459.676 169.184 459.399 169.376C459.121 169.557 458.983 169.819 458.983 170.16ZM465.811 170.16C465.811 170.469 465.965 170.72 466.275 170.912C466.584 171.093 466.957 171.243 467.395 171.36C467.832 171.467 468.269 171.595 468.707 171.744C469.144 171.883 469.517 172.128 469.827 172.48C470.136 172.821 470.291 173.264 470.291 173.808C470.291 174.533 470.008 175.115 469.443 175.552C468.888 175.989 468.173 176.208 467.299 176.208C466.52 176.208 465.853 176.037 465.299 175.696C464.744 175.355 464.349 174.901 464.115 174.336L465.315 173.648C465.443 174.032 465.683 174.336 466.035 174.56C466.387 174.784 466.808 174.896 467.299 174.896C467.757 174.896 468.136 174.811 468.435 174.64C468.733 174.459 468.883 174.181 468.883 173.808C468.883 173.499 468.728 173.253 468.419 173.072C468.109 172.88 467.736 172.731 467.299 172.624C466.861 172.507 466.424 172.373 465.987 172.224C465.549 172.075 465.176 171.829 464.867 171.488C464.557 171.147 464.403 170.709 464.403 170.176C464.403 169.483 464.669 168.912 465.203 168.464C465.747 168.016 466.424 167.792 467.235 167.792C467.885 167.792 468.461 167.941 468.963 168.24C469.475 168.528 469.859 168.933 470.115 169.456L468.947 170.112C468.659 169.429 468.088 169.088 467.235 169.088C466.84 169.088 466.504 169.184 466.227 169.376C465.949 169.557 465.811 169.819 465.811 170.16ZM471.861 176V164.32H473.253V176H471.861ZM480.96 168H482.448L479.184 176.496C478.843 177.403 478.363 178.091 477.744 178.56C477.136 179.04 476.432 179.253 475.632 179.2V177.904C476.614 177.979 477.334 177.435 477.792 176.272L477.936 175.968L474.448 168H475.936L478.656 174.272L480.96 168ZM491.963 169.344H489.835V173.68C489.835 174.075 489.909 174.357 490.059 174.528C490.219 174.688 490.459 174.773 490.779 174.784C491.099 174.784 491.493 174.773 491.963 174.752V176C490.747 176.16 489.856 176.064 489.291 175.712C488.725 175.349 488.443 174.672 488.443 173.68V169.344H486.859V168H488.443V166.176L489.835 165.76V168H491.963V169.344ZM495.05 169.344C495.508 168.352 496.34 167.856 497.546 167.856V169.312C496.863 169.28 496.276 169.461 495.786 169.856C495.295 170.251 495.05 170.885 495.05 171.76V176H493.658V168H495.05V169.344ZM505.094 168H506.486V176H505.094V174.624C504.401 175.68 503.393 176.208 502.07 176.208C500.95 176.208 499.995 175.803 499.206 174.992C498.417 174.171 498.022 173.173 498.022 172C498.022 170.827 498.417 169.835 499.206 169.024C499.995 168.203 500.95 167.792 502.07 167.792C503.393 167.792 504.401 168.32 505.094 169.376V168ZM502.246 174.864C503.057 174.864 503.734 174.592 504.278 174.048C504.822 173.493 505.094 172.811 505.094 172C505.094 171.189 504.822 170.512 504.278 169.968C503.734 169.413 503.057 169.136 502.246 169.136C501.446 169.136 500.774 169.413 500.23 169.968C499.686 170.512 499.414 171.189 499.414 172C499.414 172.811 499.686 173.493 500.23 174.048C500.774 174.592 501.446 174.864 502.246 174.864ZM512.579 167.792C513.518 167.792 514.27 168.091 514.835 168.688C515.4 169.275 515.683 170.075 515.683 171.088V176H514.291V171.168C514.291 170.517 514.115 170.016 513.763 169.664C513.411 169.301 512.926 169.12 512.307 169.12C511.614 169.12 511.054 169.339 510.627 169.776C510.2 170.203 509.987 170.864 509.987 171.76V176H508.595V168H509.987V169.152C510.552 168.245 511.416 167.792 512.579 167.792ZM518.826 170.16C518.826 170.469 518.981 170.72 519.29 170.912C519.6 171.093 519.973 171.243 520.41 171.36C520.848 171.467 521.285 171.595 521.722 171.744C522.16 171.883 522.533 172.128 522.842 172.48C523.152 172.821 523.306 173.264 523.306 173.808C523.306 174.533 523.024 175.115 522.458 175.552C521.904 175.989 521.189 176.208 520.314 176.208C519.536 176.208 518.869 176.037 518.314 175.696C517.76 175.355 517.365 174.901 517.13 174.336L518.33 173.648C518.458 174.032 518.698 174.336 519.05 174.56C519.402 174.784 519.824 174.896 520.314 174.896C520.773 174.896 521.152 174.811 521.45 174.64C521.749 174.459 521.898 174.181 521.898 173.808C521.898 173.499 521.744 173.253 521.434 173.072C521.125 172.88 520.752 172.731 520.314 172.624C519.877 172.507 519.44 172.373 519.002 172.224C518.565 172.075 518.192 171.829 517.882 171.488C517.573 171.147 517.418 170.709 517.418 170.176C517.418 169.483 517.685 168.912 518.218 168.464C518.762 168.016 519.44 167.792 520.25 167.792C520.901 167.792 521.477 167.941 521.978 168.24C522.49 168.528 522.874 168.933 523.13 169.456L521.962 170.112C521.674 169.429 521.104 169.088 520.25 169.088C519.856 169.088 519.52 169.184 519.242 169.376C518.965 169.557 518.826 169.819 518.826 170.16ZM528.895 165.936C527.487 165.819 526.783 166.427 526.783 167.76V168H528.895V169.344H526.783V176H525.391V169.344H524.111V168H525.391V167.76C525.391 166.683 525.689 165.867 526.287 165.312C526.895 164.757 527.764 164.517 528.895 164.592V165.936ZM536.269 174.992C535.448 175.803 534.45 176.208 533.277 176.208C532.104 176.208 531.106 175.803 530.285 174.992C529.474 174.181 529.069 173.184 529.069 172C529.069 170.816 529.474 169.819 530.285 169.008C531.106 168.197 532.104 167.792 533.277 167.792C534.45 167.792 535.448 168.197 536.269 169.008C537.09 169.819 537.501 170.816 537.501 172C537.501 173.184 537.09 174.181 536.269 174.992ZM533.277 174.848C534.077 174.848 534.749 174.576 535.293 174.032C535.837 173.488 536.109 172.811 536.109 172C536.109 171.189 535.837 170.512 535.293 169.968C534.749 169.424 534.077 169.152 533.277 169.152C532.488 169.152 531.821 169.424 531.277 169.968C530.733 170.512 530.461 171.189 530.461 172C530.461 172.811 530.733 173.488 531.277 174.032C531.821 174.576 532.488 174.848 533.277 174.848ZM540.534 169.344C540.993 168.352 541.825 167.856 543.03 167.856V169.312C542.347 169.28 541.761 169.461 541.27 169.856C540.779 170.251 540.534 170.885 540.534 171.76V176H539.142V168H540.534V169.344ZM553.032 167.792C553.928 167.792 554.653 168.085 555.208 168.672C555.763 169.248 556.04 170.032 556.04 171.024V176H554.648V171.072C554.648 170.453 554.488 169.973 554.168 169.632C553.848 169.291 553.421 169.12 552.888 169.12C552.291 169.12 551.811 169.323 551.448 169.728C551.096 170.123 550.92 170.731 550.92 171.552V176H549.528V171.072C549.528 170.453 549.373 169.973 549.064 169.632C548.765 169.291 548.355 169.12 547.832 169.12C547.245 169.12 546.755 169.323 546.36 169.728C545.976 170.133 545.784 170.741 545.784 171.552V176H544.392V168H545.784V169.072C546.328 168.219 547.123 167.792 548.168 167.792C549.245 167.792 550.029 168.245 550.52 169.152C551.075 168.245 551.912 167.792 553.032 167.792ZM567.554 168H569.042L565.778 176.496C565.437 177.403 564.957 178.091 564.338 178.56C563.73 179.04 563.026 179.253 562.226 179.2V177.904C563.207 177.979 563.927 177.435 564.386 176.272L564.53 175.968L561.042 168H562.53L565.25 174.272L567.554 168ZM576.644 174.992C575.823 175.803 574.825 176.208 573.652 176.208C572.479 176.208 571.481 175.803 570.66 174.992C569.849 174.181 569.444 173.184 569.444 172C569.444 170.816 569.849 169.819 570.66 169.008C571.481 168.197 572.479 167.792 573.652 167.792C574.825 167.792 575.823 168.197 576.644 169.008C577.465 169.819 577.876 170.816 577.876 172C577.876 173.184 577.465 174.181 576.644 174.992ZM573.652 174.848C574.452 174.848 575.124 174.576 575.668 174.032C576.212 173.488 576.484 172.811 576.484 172C576.484 171.189 576.212 170.512 575.668 169.968C575.124 169.424 574.452 169.152 573.652 169.152C572.863 169.152 572.196 169.424 571.652 169.968C571.108 170.512 570.836 171.189 570.836 172C570.836 172.811 571.108 173.488 571.652 174.032C572.196 174.576 572.863 174.848 573.652 174.848ZM585.037 168H586.429V176H585.037V174.848C584.472 175.755 583.608 176.208 582.445 176.208C581.506 176.208 580.754 175.915 580.189 175.328C579.624 174.731 579.341 173.925 579.341 172.912V168H580.733V172.832C580.733 173.483 580.909 173.989 581.261 174.352C581.613 174.704 582.098 174.88 582.717 174.88C583.41 174.88 583.97 174.667 584.397 174.24C584.824 173.803 585.037 173.136 585.037 172.24V168ZM589.94 169.344C590.399 168.352 591.231 167.856 592.436 167.856V169.312C591.754 169.28 591.167 169.461 590.676 169.856C590.186 170.251 589.94 170.885 589.94 171.76V176H588.548V168H589.94V169.344ZM597.798 176V164.32H599.19V176H597.798ZM608.066 174.992C607.244 175.803 606.247 176.208 605.074 176.208C603.9 176.208 602.903 175.803 602.082 174.992C601.271 174.181 600.866 173.184 600.866 172C600.866 170.816 601.271 169.819 602.082 169.008C602.903 168.197 603.9 167.792 605.074 167.792C606.247 167.792 607.244 168.197 608.066 169.008C608.887 169.819 609.298 170.816 609.298 172C609.298 173.184 608.887 174.181 608.066 174.992ZM605.074 174.848C605.874 174.848 606.546 174.576 607.09 174.032C607.634 173.488 607.906 172.811 607.906 172C607.906 171.189 607.634 170.512 607.09 169.968C606.546 169.424 605.874 169.152 605.074 169.152C604.284 169.152 603.618 169.424 603.074 169.968C602.53 170.512 602.258 171.189 602.258 172C602.258 172.811 602.53 173.488 603.074 174.032C603.618 174.576 604.284 174.848 605.074 174.848ZM614.923 167.792C615.861 167.792 616.613 168.091 617.179 168.688C617.744 169.275 618.027 170.075 618.027 171.088V176H616.635V171.168C616.635 170.517 616.459 170.016 616.107 169.664C615.755 169.301 615.269 169.12 614.651 169.12C613.957 169.12 613.397 169.339 612.971 169.776C612.544 170.203 612.331 170.864 612.331 171.76V176H610.939V168H612.331V169.152C612.896 168.245 613.76 167.792 614.923 167.792ZM626.61 168H627.986V175.664C627.986 176.848 627.586 177.765 626.786 178.416C625.986 179.077 625.026 179.408 623.906 179.408C623.01 179.408 622.237 179.237 621.586 178.896C620.935 178.565 620.445 178.085 620.114 177.456L621.33 176.768C621.767 177.664 622.637 178.112 623.938 178.112C624.77 178.112 625.421 177.893 625.89 177.456C626.37 177.019 626.61 176.421 626.61 175.664V174.528C625.906 175.595 624.903 176.128 623.602 176.128C622.461 176.128 621.495 175.723 620.706 174.912C619.917 174.101 619.522 173.115 619.522 171.952C619.522 170.789 619.917 169.808 620.706 169.008C621.495 168.197 622.461 167.792 623.602 167.792C624.914 167.792 625.917 168.32 626.61 169.376V168ZM621.73 173.984C622.274 174.528 622.951 174.8 623.762 174.8C624.573 174.8 625.25 174.528 625.794 173.984C626.338 173.44 626.61 172.763 626.61 171.952C626.61 171.152 626.338 170.48 625.794 169.936C625.25 169.392 624.573 169.12 623.762 169.12C622.951 169.12 622.274 169.392 621.73 169.936C621.186 170.48 620.914 171.152 620.914 171.952C620.914 172.763 621.186 173.44 621.73 173.984ZM641.327 175.136C640.548 175.851 639.54 176.208 638.303 176.208C637.066 176.208 636.052 175.851 635.263 175.136C634.484 174.411 634.095 173.445 634.095 172.24V164.8H635.583V172.176C635.583 172.965 635.818 173.595 636.287 174.064C636.756 174.523 637.428 174.752 638.303 174.752C639.178 174.752 639.85 174.523 640.319 174.064C640.788 173.595 641.023 172.965 641.023 172.176V164.8H642.495V172.24C642.495 173.445 642.106 174.411 641.327 175.136ZM651.41 176L648.898 171.712H646.258V176H644.77V164.8H649.25C650.21 164.8 651.032 165.141 651.714 165.824C652.397 166.496 652.738 167.312 652.738 168.272C652.738 168.997 652.52 169.659 652.082 170.256C651.656 170.853 651.101 171.275 650.418 171.52L653.058 176H651.41ZM646.258 166.192V170.368H649.25C649.805 170.368 650.274 170.165 650.658 169.76C651.053 169.344 651.25 168.848 651.25 168.272C651.25 167.696 651.053 167.205 650.658 166.8C650.274 166.395 649.805 166.192 649.25 166.192H646.258ZM656.04 174.592H660.872V176H654.552V164.8H656.04V174.592ZM663.42 170.16C663.42 170.469 663.575 170.72 663.884 170.912C664.193 171.093 664.567 171.243 665.004 171.36C665.441 171.467 665.879 171.595 666.316 171.744C666.753 171.883 667.127 172.128 667.436 172.48C667.745 172.821 667.9 173.264 667.9 173.808C667.9 174.533 667.617 175.115 667.052 175.552C666.497 175.989 665.783 176.208 664.908 176.208C664.129 176.208 663.463 176.037 662.908 175.696C662.353 175.355 661.959 174.901 661.724 174.336L662.924 173.648C663.052 174.032 663.292 174.336 663.644 174.56C663.996 174.784 664.417 174.896 664.908 174.896C665.367 174.896 665.745 174.811 666.044 174.64C666.343 174.459 666.492 174.181 666.492 173.808C666.492 173.499 666.337 173.253 666.028 173.072C665.719 172.88 665.345 172.731 664.908 172.624C664.471 172.507 664.033 172.373 663.596 172.224C663.159 172.075 662.785 171.829 662.476 171.488C662.167 171.147 662.012 170.709 662.012 170.176C662.012 169.483 662.279 168.912 662.812 168.464C663.356 168.016 664.033 167.792 664.844 167.792C665.495 167.792 666.071 167.941 666.572 168.24C667.084 168.528 667.468 168.933 667.724 169.456L666.556 170.112C666.268 169.429 665.697 169.088 664.844 169.088C664.449 169.088 664.113 169.184 663.836 169.376C663.559 169.557 663.42 169.819 663.42 170.16ZM674.252 166.544C673.986 166.544 673.762 166.453 673.58 166.272C673.399 166.091 673.308 165.872 673.308 165.616C673.308 165.36 673.399 165.141 673.58 164.96C673.762 164.768 673.986 164.672 674.252 164.672C674.508 164.672 674.727 164.768 674.908 164.96C675.09 165.141 675.18 165.36 675.18 165.616C675.18 165.872 675.09 166.091 674.908 166.272C674.727 166.453 674.508 166.544 674.252 166.544ZM673.548 176V168H674.94V176H673.548ZM681.048 167.792C681.986 167.792 682.738 168.091 683.304 168.688C683.869 169.275 684.152 170.075 684.152 171.088V176H682.76V171.168C682.76 170.517 682.584 170.016 682.232 169.664C681.88 169.301 681.394 169.12 680.776 169.12C680.082 169.12 679.522 169.339 679.096 169.776C678.669 170.203 678.456 170.864 678.456 171.76V176H677.064V168H678.456V169.152C679.021 168.245 679.885 167.792 681.048 167.792ZM690.447 169.344H688.319V173.68C688.319 174.075 688.394 174.357 688.543 174.528C688.703 174.688 688.943 174.773 689.263 174.784C689.583 174.784 689.978 174.773 690.447 174.752V176C689.231 176.16 688.34 176.064 687.775 175.712C687.21 175.349 686.927 174.672 686.927 173.68V169.344H685.343V168H686.927V166.176L688.319 165.76V168H690.447V169.344ZM698.441 174.992C697.619 175.803 696.622 176.208 695.449 176.208C694.275 176.208 693.278 175.803 692.457 174.992C691.646 174.181 691.241 173.184 691.241 172C691.241 170.816 691.646 169.819 692.457 169.008C693.278 168.197 694.275 167.792 695.449 167.792C696.622 167.792 697.619 168.197 698.441 169.008C699.262 169.819 699.673 170.816 699.673 172C699.673 173.184 699.262 174.181 698.441 174.992ZM695.449 174.848C696.249 174.848 696.921 174.576 697.465 174.032C698.009 173.488 698.281 172.811 698.281 172C698.281 171.189 698.009 170.512 697.465 169.968C696.921 169.424 696.249 169.152 695.449 169.152C694.659 169.152 693.993 169.424 693.449 169.968C692.905 170.512 692.633 171.189 692.633 172C692.633 172.811 692.905 173.488 693.449 174.032C693.993 174.576 694.659 174.848 695.449 174.848ZM709.042 176.208C707.836 176.208 706.828 175.803 706.018 174.992C705.218 174.181 704.818 173.184 704.818 172C704.818 170.805 705.218 169.808 706.018 169.008C706.828 168.197 707.836 167.792 709.042 167.792C709.82 167.792 710.53 167.979 711.17 168.352C711.81 168.725 712.29 169.227 712.61 169.856L711.122 170.72C710.94 170.336 710.663 170.037 710.29 169.824C709.927 169.6 709.506 169.488 709.026 169.488C708.322 169.488 707.73 169.728 707.25 170.208C706.78 170.688 706.546 171.285 706.546 172C706.546 172.715 706.78 173.312 707.25 173.792C707.73 174.272 708.322 174.512 709.026 174.512C709.495 174.512 709.916 174.4 710.29 174.176C710.674 173.952 710.962 173.653 711.154 173.28L712.642 174.128C712.3 174.768 711.81 175.275 711.17 175.648C710.53 176.021 709.82 176.208 709.042 176.208ZM717.542 176.208C716.368 176.208 715.371 175.803 714.55 174.992C713.728 174.181 713.318 173.184 713.318 172C713.318 170.816 713.728 169.819 714.55 169.008C715.371 168.197 716.368 167.792 717.542 167.792C718.726 167.792 719.723 168.197 720.534 169.008C721.355 169.819 721.766 170.816 721.766 172C721.766 173.184 721.355 174.181 720.534 174.992C719.723 175.803 718.726 176.208 717.542 176.208ZM715.766 173.808C716.246 174.288 716.838 174.528 717.542 174.528C718.246 174.528 718.838 174.288 719.318 173.808C719.798 173.328 720.038 172.725 720.038 172C720.038 171.275 719.798 170.672 719.318 170.192C718.838 169.712 718.246 169.472 717.542 169.472C716.838 169.472 716.246 169.712 715.766 170.192C715.286 170.672 715.046 171.275 715.046 172C715.046 172.725 715.286 173.328 715.766 173.808ZM727.536 167.792C728.454 167.792 729.195 168.085 729.76 168.672C730.326 169.259 730.608 170.064 730.608 171.088V176H728.88V171.264C728.88 170.667 728.72 170.208 728.4 169.888C728.08 169.568 727.643 169.408 727.088 169.408C726.48 169.408 725.99 169.6 725.616 169.984C725.243 170.357 725.056 170.933 725.056 171.712V176H723.328V168H725.056V169.024C725.579 168.203 726.406 167.792 727.536 167.792ZM736.245 176.208C735.04 176.208 734.032 175.803 733.221 174.992C732.421 174.181 732.021 173.184 732.021 172C732.021 170.805 732.421 169.808 733.221 169.008C734.032 168.197 735.04 167.792 736.245 167.792C737.024 167.792 737.733 167.979 738.373 168.352C739.013 168.725 739.493 169.227 739.813 169.856L738.325 170.72C738.144 170.336 737.866 170.037 737.493 169.824C737.13 169.6 736.709 169.488 736.229 169.488C735.525 169.488 734.933 169.728 734.453 170.208C733.984 170.688 733.749 171.285 733.749 172C733.749 172.715 733.984 173.312 734.453 173.792C734.933 174.272 735.525 174.512 736.229 174.512C736.698 174.512 737.12 174.4 737.493 174.176C737.877 173.952 738.165 173.653 738.357 173.28L739.845 174.128C739.504 174.768 739.013 175.275 738.373 175.648C737.733 176.021 737.024 176.208 736.245 176.208ZM742.726 166.48C742.513 166.693 742.257 166.8 741.958 166.8C741.659 166.8 741.398 166.693 741.174 166.48C740.961 166.256 740.854 165.995 740.854 165.696C740.854 165.397 740.961 165.141 741.174 164.928C741.387 164.704 741.649 164.592 741.958 164.592C742.267 164.592 742.529 164.704 742.742 164.928C742.955 165.141 743.062 165.397 743.062 165.696C743.062 165.995 742.95 166.256 742.726 166.48ZM741.094 176V168H742.822V176H741.094ZM746.333 170.208C746.333 170.475 746.477 170.688 746.765 170.848C747.064 170.997 747.421 171.131 747.837 171.248C748.264 171.355 748.691 171.483 749.117 171.632C749.544 171.781 749.901 172.037 750.189 172.4C750.488 172.752 750.637 173.2 750.637 173.744C750.637 174.512 750.339 175.115 749.741 175.552C749.155 175.989 748.413 176.208 747.517 176.208C746.728 176.208 746.051 176.043 745.485 175.712C744.92 175.381 744.509 174.923 744.253 174.336L745.741 173.472C746.019 174.24 746.611 174.624 747.517 174.624C748.424 174.624 748.877 174.325 748.877 173.728C748.877 173.472 748.728 173.264 748.429 173.104C748.141 172.944 747.784 172.811 747.357 172.704C746.941 172.587 746.52 172.453 746.093 172.304C745.667 172.155 745.304 171.909 745.005 171.568C744.717 171.216 744.573 170.773 744.573 170.24C744.573 169.504 744.851 168.912 745.405 168.464C745.971 168.016 746.669 167.792 747.501 167.792C748.163 167.792 748.749 167.941 749.261 168.24C749.784 168.528 750.184 168.933 750.461 169.456L749.005 170.272C748.728 169.664 748.227 169.36 747.501 169.36C747.171 169.36 746.893 169.435 746.669 169.584C746.445 169.723 746.333 169.931 746.333 170.208ZM753.313 172.736C753.441 173.344 753.735 173.813 754.193 174.144C754.652 174.464 755.212 174.624 755.873 174.624C756.791 174.624 757.479 174.293 757.937 173.632L759.361 174.464C758.572 175.627 757.404 176.208 755.857 176.208C754.556 176.208 753.505 175.813 752.705 175.024C751.905 174.224 751.505 173.216 751.505 172C751.505 170.805 751.9 169.808 752.689 169.008C753.479 168.197 754.492 167.792 755.729 167.792C756.903 167.792 757.863 168.203 758.609 169.024C759.367 169.845 759.745 170.843 759.745 172.016C759.745 172.197 759.724 172.437 759.681 172.736H753.313ZM753.297 171.328H758.001C757.884 170.677 757.612 170.187 757.185 169.856C756.769 169.525 756.279 169.36 755.713 169.36C755.073 169.36 754.54 169.536 754.113 169.888C753.687 170.24 753.415 170.72 753.297 171.328ZM446.25 192H447.642V200H446.25V198.624C445.557 199.68 444.549 200.208 443.226 200.208C442.106 200.208 441.152 199.803 440.362 198.992C439.573 198.171 439.178 197.173 439.178 196C439.178 194.827 439.573 193.835 440.362 193.024C441.152 192.203 442.106 191.792 443.226 191.792C444.549 191.792 445.557 192.32 446.25 193.376V192ZM443.402 198.864C444.213 198.864 444.89 198.592 445.434 198.048C445.978 197.493 446.25 196.811 446.25 196C446.25 195.189 445.978 194.512 445.434 193.968C444.89 193.413 444.213 193.136 443.402 193.136C442.602 193.136 441.93 193.413 441.386 193.968C440.842 194.512 440.57 195.189 440.57 196C440.57 196.811 440.842 197.493 441.386 198.048C441.93 198.592 442.602 198.864 443.402 198.864ZM453.735 191.792C454.674 191.792 455.426 192.091 455.991 192.688C456.557 193.275 456.839 194.075 456.839 195.088V200H455.447V195.168C455.447 194.517 455.271 194.016 454.919 193.664C454.567 193.301 454.082 193.12 453.463 193.12C452.77 193.12 452.21 193.339 451.783 193.776C451.357 194.203 451.143 194.864 451.143 195.76V200H449.751V192H451.143V193.152C451.709 192.245 452.573 191.792 453.735 191.792ZM465.407 188.8H466.799V200H465.407V198.624C464.713 199.68 463.705 200.208 462.383 200.208C461.263 200.208 460.308 199.803 459.519 198.992C458.729 198.171 458.335 197.173 458.335 196C458.335 194.827 458.729 193.835 459.519 193.024C460.308 192.203 461.263 191.792 462.383 191.792C463.705 191.792 464.713 192.32 465.407 193.376V188.8ZM462.559 198.864C463.369 198.864 464.047 198.592 464.591 198.048C465.135 197.493 465.407 196.811 465.407 196C465.407 195.189 465.135 194.512 464.591 193.968C464.047 193.413 463.369 193.136 462.559 193.136C461.759 193.136 461.087 193.413 460.543 193.968C459.999 194.512 459.727 195.189 459.727 196C459.727 196.811 459.999 197.493 460.543 198.048C461.087 198.592 461.759 198.864 462.559 198.864ZM474.412 194.208C474.412 194.475 474.556 194.688 474.844 194.848C475.142 194.997 475.5 195.131 475.916 195.248C476.342 195.355 476.769 195.483 477.196 195.632C477.622 195.781 477.98 196.037 478.268 196.4C478.566 196.752 478.716 197.2 478.716 197.744C478.716 198.512 478.417 199.115 477.82 199.552C477.233 199.989 476.492 200.208 475.596 200.208C474.806 200.208 474.129 200.043 473.564 199.712C472.998 199.381 472.588 198.923 472.332 198.336L473.82 197.472C474.097 198.24 474.689 198.624 475.596 198.624C476.502 198.624 476.956 198.325 476.956 197.728C476.956 197.472 476.806 197.264 476.508 197.104C476.22 196.944 475.862 196.811 475.436 196.704C475.02 196.587 474.598 196.453 474.172 196.304C473.745 196.155 473.382 195.909 473.084 195.568C472.796 195.216 472.652 194.773 472.652 194.24C472.652 193.504 472.929 192.912 473.484 192.464C474.049 192.016 474.748 191.792 475.58 191.792C476.241 191.792 476.828 191.941 477.34 192.24C477.862 192.528 478.262 192.933 478.54 193.456L477.084 194.272C476.806 193.664 476.305 193.36 475.58 193.36C475.249 193.36 474.972 193.435 474.748 193.584C474.524 193.723 474.412 193.931 474.412 194.208ZM484.349 191.792C485.266 191.792 486.007 192.085 486.573 192.672C487.138 193.259 487.421 194.064 487.421 195.088V200H485.693V195.264C485.693 194.667 485.533 194.208 485.213 193.888C484.893 193.568 484.455 193.408 483.901 193.408C483.293 193.408 482.802 193.6 482.429 193.984C482.055 194.357 481.869 194.933 481.869 195.712V200H480.141V188.8H481.869V193.024C482.391 192.203 483.218 191.792 484.349 191.792ZM495.617 192H497.345V200H495.617V198.848C494.967 199.755 494.033 200.208 492.817 200.208C491.719 200.208 490.78 199.803 490.001 198.992C489.223 198.171 488.833 197.173 488.833 196C488.833 194.816 489.223 193.819 490.001 193.008C490.78 192.197 491.719 191.792 492.817 191.792C494.033 191.792 494.967 192.24 495.617 193.136V192ZM491.281 197.84C491.761 198.32 492.364 198.56 493.089 198.56C493.815 198.56 494.417 198.32 494.897 197.84C495.377 197.349 495.617 196.736 495.617 196C495.617 195.264 495.377 194.656 494.897 194.176C494.417 193.685 493.815 193.44 493.089 193.44C492.364 193.44 491.761 193.685 491.281 194.176C490.801 194.656 490.561 195.264 490.561 196C490.561 196.736 490.801 197.349 491.281 197.84ZM501.088 193.344C501.525 192.352 502.346 191.856 503.552 191.856V193.728C502.89 193.685 502.314 193.845 501.824 194.208C501.333 194.56 501.088 195.147 501.088 195.968V200H499.36V192H501.088V193.344ZM505.813 196.736C505.941 197.344 506.235 197.813 506.693 198.144C507.152 198.464 507.712 198.624 508.373 198.624C509.291 198.624 509.979 198.293 510.437 197.632L511.861 198.464C511.072 199.627 509.904 200.208 508.357 200.208C507.056 200.208 506.005 199.813 505.205 199.024C504.405 198.224 504.005 197.216 504.005 196C504.005 194.805 504.4 193.808 505.189 193.008C505.979 192.197 506.992 191.792 508.229 191.792C509.403 191.792 510.363 192.203 511.109 193.024C511.867 193.845 512.245 194.843 512.245 196.016C512.245 196.197 512.224 196.437 512.181 196.736H505.813ZM505.797 195.328H510.501C510.384 194.677 510.112 194.187 509.685 193.856C509.269 193.525 508.779 193.36 508.213 193.36C507.573 193.36 507.04 193.536 506.613 193.888C506.187 194.24 505.915 194.72 505.797 195.328ZM520.055 192H521.783V200H520.055V198.848C519.404 199.755 518.471 200.208 517.255 200.208C516.156 200.208 515.218 199.803 514.439 198.992C513.66 198.171 513.271 197.173 513.271 196C513.271 194.816 513.66 193.819 514.439 193.008C515.218 192.197 516.156 191.792 517.255 191.792C518.471 191.792 519.404 192.24 520.055 193.136V192ZM515.719 197.84C516.199 198.32 516.802 198.56 517.527 198.56C518.252 198.56 518.855 198.32 519.335 197.84C519.815 197.349 520.055 196.736 520.055 196C520.055 195.264 519.815 194.656 519.335 194.176C518.855 193.685 518.252 193.44 517.527 193.44C516.802 193.44 516.199 193.685 515.719 194.176C515.239 194.656 514.999 195.264 514.999 196C514.999 196.736 515.239 197.349 515.719 197.84ZM528.325 191.792C529.424 191.792 530.362 192.197 531.141 193.008C531.92 193.819 532.309 194.816 532.309 196C532.309 197.173 531.92 198.171 531.141 198.992C530.362 199.803 529.424 200.208 528.325 200.208C527.109 200.208 526.176 199.755 525.525 198.848V200H523.797V188.8H525.525V193.136C526.176 192.24 527.109 191.792 528.325 191.792ZM526.245 197.84C526.725 198.32 527.328 198.56 528.053 198.56C528.778 198.56 529.381 198.32 529.861 197.84C530.341 197.349 530.581 196.736 530.581 196C530.581 195.264 530.341 194.656 529.861 194.176C529.381 193.685 528.778 193.44 528.053 193.44C527.328 193.44 526.725 193.685 526.245 194.176C525.765 194.656 525.525 195.264 525.525 196C525.525 196.736 525.765 197.349 526.245 197.84ZM533.875 200V188.32H535.603V200H533.875ZM538.97 196.736C539.098 197.344 539.391 197.813 539.85 198.144C540.308 198.464 540.868 198.624 541.53 198.624C542.447 198.624 543.135 198.293 543.594 197.632L545.018 198.464C544.228 199.627 543.06 200.208 541.514 200.208C540.212 200.208 539.162 199.813 538.362 199.024C537.562 198.224 537.162 197.216 537.162 196C537.162 194.805 537.556 193.808 538.346 193.008C539.135 192.197 540.148 191.792 541.386 191.792C542.559 191.792 543.519 192.203 544.266 193.024C545.023 193.845 545.402 194.843 545.402 196.016C545.402 196.197 545.38 196.437 545.338 196.736H538.97ZM538.954 195.328H543.658C543.54 194.677 543.268 194.187 542.842 193.856C542.426 193.525 541.935 193.36 541.37 193.36C540.73 193.36 540.196 193.536 539.77 193.888C539.343 194.24 539.071 194.72 538.954 195.328ZM550.922 200V188.32H552.65V200H550.922ZM556.288 190.48C556.075 190.693 555.819 190.8 555.52 190.8C555.222 190.8 554.96 190.693 554.736 190.48C554.523 190.256 554.416 189.995 554.416 189.696C554.416 189.397 554.523 189.141 554.736 188.928C554.95 188.704 555.211 188.592 555.52 188.592C555.83 188.592 556.091 188.704 556.304 188.928C556.518 189.141 556.624 189.397 556.624 189.696C556.624 189.995 556.512 190.256 556.288 190.48ZM554.656 200V192H556.384V200H554.656ZM562.599 191.792C563.516 191.792 564.257 192.085 564.823 192.672C565.388 193.259 565.671 194.064 565.671 195.088V200H563.943V195.264C563.943 194.667 563.783 194.208 563.463 193.888C563.143 193.568 562.705 193.408 562.151 193.408C561.543 193.408 561.052 193.6 560.679 193.984C560.305 194.357 560.119 194.933 560.119 195.712V200H558.391V192H560.119V193.024C560.641 192.203 561.468 191.792 562.599 191.792ZM574.603 200H572.539L569.259 196.304V200H567.531V188.8H569.259V195.536L572.363 192H574.475L570.955 195.92L574.603 200ZM576.755 194.208C576.755 194.475 576.899 194.688 577.187 194.848C577.486 194.997 577.843 195.131 578.259 195.248C578.686 195.355 579.113 195.483 579.539 195.632C579.966 195.781 580.323 196.037 580.611 196.4C580.91 196.752 581.059 197.2 581.059 197.744C581.059 198.512 580.761 199.115 580.163 199.552C579.577 199.989 578.835 200.208 577.939 200.208C577.15 200.208 576.473 200.043 575.907 199.712C575.342 199.381 574.931 198.923 574.675 198.336L576.163 197.472C576.441 198.24 577.033 198.624 577.939 198.624C578.846 198.624 579.299 198.325 579.299 197.728C579.299 197.472 579.15 197.264 578.851 197.104C578.563 196.944 578.206 196.811 577.779 196.704C577.363 196.587 576.942 196.453 576.515 196.304C576.089 196.155 575.726 195.909 575.427 195.568C575.139 195.216 574.995 194.773 574.995 194.24C574.995 193.504 575.273 192.912 575.827 192.464C576.393 192.016 577.091 191.792 577.923 191.792C578.585 191.792 579.171 191.941 579.683 192.24C580.206 192.528 580.606 192.933 580.883 193.456L579.427 194.272C579.15 193.664 578.649 193.36 577.923 193.36C577.593 193.36 577.315 193.435 577.091 193.584C576.867 193.723 576.755 193.931 576.755 194.208ZM596.05 192H597.506L595.026 200H593.602L591.73 194.08L589.858 200H588.434L585.954 192H587.41L589.17 198.08L591.058 192H592.402L594.29 198.096L596.05 192ZM599.643 190.544C599.376 190.544 599.152 190.453 598.971 190.272C598.789 190.091 598.699 189.872 598.699 189.616C598.699 189.36 598.789 189.141 598.971 188.96C599.152 188.768 599.376 188.672 599.643 188.672C599.899 188.672 600.117 188.768 600.299 188.96C600.48 189.141 600.571 189.36 600.571 189.616C600.571 189.872 600.48 190.091 600.299 190.272C600.117 190.453 599.899 190.544 599.643 190.544ZM598.939 200V192H600.331V200H598.939ZM606.806 193.344H604.678V197.68C604.678 198.075 604.753 198.357 604.902 198.528C605.062 198.688 605.302 198.773 605.622 198.784C605.942 198.784 606.337 198.773 606.806 198.752V200C605.59 200.16 604.7 200.064 604.134 199.712C603.569 199.349 603.286 198.672 603.286 197.68V193.344H601.702V192H603.286V190.176L604.678 189.76V192H606.806V193.344ZM612.438 191.792C613.377 191.792 614.129 192.091 614.694 192.688C615.26 193.275 615.542 194.075 615.542 195.088V200H614.15V195.168C614.15 194.517 613.974 194.016 613.622 193.664C613.27 193.301 612.785 193.12 612.166 193.12C611.473 193.12 610.913 193.339 610.486 193.776C610.06 194.203 609.846 194.864 609.846 195.76V200H608.454V188.8H609.846V193.152C610.412 192.245 611.276 191.792 612.438 191.792ZM622.542 190.544C622.275 190.544 622.051 190.453 621.87 190.272C621.688 190.091 621.598 189.872 621.598 189.616C621.598 189.36 621.688 189.141 621.87 188.96C622.051 188.768 622.275 188.672 622.542 188.672C622.798 188.672 623.016 188.768 623.198 188.96C623.379 189.141 623.47 189.36 623.47 189.616C623.47 189.872 623.379 190.091 623.198 190.272C623.016 190.453 622.798 190.544 622.542 190.544ZM621.838 200.48V192H623.23V200.48C623.23 201.515 622.968 202.277 622.446 202.768C621.923 203.269 621.155 203.483 620.142 203.408V202.064C620.728 202.117 621.155 202.021 621.422 201.776C621.699 201.531 621.838 201.099 621.838 200.48ZM630.865 192H632.257V200H630.865V198.848C630.3 199.755 629.436 200.208 628.273 200.208C627.334 200.208 626.582 199.915 626.017 199.328C625.452 198.731 625.169 197.925 625.169 196.912V192H626.561V196.832C626.561 197.483 626.737 197.989 627.089 198.352C627.441 198.704 627.926 198.88 628.545 198.88C629.238 198.88 629.798 198.667 630.225 198.24C630.652 197.803 630.865 197.136 630.865 196.24V192ZM635.561 194.16C635.561 194.469 635.715 194.72 636.025 194.912C636.334 195.093 636.707 195.243 637.145 195.36C637.582 195.467 638.019 195.595 638.457 195.744C638.894 195.883 639.267 196.128 639.577 196.48C639.886 196.821 640.041 197.264 640.041 197.808C640.041 198.533 639.758 199.115 639.193 199.552C638.638 199.989 637.923 200.208 637.049 200.208C636.27 200.208 635.603 200.037 635.049 199.696C634.494 199.355 634.099 198.901 633.865 198.336L635.065 197.648C635.193 198.032 635.433 198.336 635.785 198.56C636.137 198.784 636.558 198.896 637.049 198.896C637.507 198.896 637.886 198.811 638.185 198.64C638.483 198.459 638.633 198.181 638.633 197.808C638.633 197.499 638.478 197.253 638.169 197.072C637.859 196.88 637.486 196.731 637.049 196.624C636.611 196.507 636.174 196.373 635.737 196.224C635.299 196.075 634.926 195.829 634.617 195.488C634.307 195.147 634.153 194.709 634.153 194.176C634.153 193.483 634.419 192.912 634.953 192.464C635.497 192.016 636.174 191.792 636.985 191.792C637.635 191.792 638.211 191.941 638.713 192.24C639.225 192.528 639.609 192.933 639.865 193.456L638.697 194.112C638.409 193.429 637.838 193.088 636.985 193.088C636.59 193.088 636.254 193.184 635.977 193.376C635.699 193.557 635.561 193.819 635.561 194.16ZM645.728 193.344H643.6V197.68C643.6 198.075 643.675 198.357 643.824 198.528C643.984 198.688 644.224 198.773 644.544 198.784C644.864 198.784 645.259 198.773 645.728 198.752V200C644.512 200.16 643.622 200.064 643.056 199.712C642.491 199.349 642.208 198.672 642.208 197.68V193.344H640.624V192H642.208V190.176L643.6 189.76V192H645.728V193.344ZM655.535 189.936C654.127 189.819 653.423 190.427 653.423 191.76V192H655.535V193.344H653.423V200H652.031V193.344H650.751V192H652.031V191.76C652.031 190.683 652.33 189.867 652.927 189.312C653.535 188.757 654.405 188.517 655.535 188.592V189.936ZM657.134 196.64C657.272 197.355 657.598 197.909 658.11 198.304C658.632 198.699 659.272 198.896 660.03 198.896C661.086 198.896 661.854 198.507 662.334 197.728L663.518 198.4C662.739 199.605 661.566 200.208 659.998 200.208C658.728 200.208 657.694 199.813 656.894 199.024C656.104 198.224 655.71 197.216 655.71 196C655.71 194.795 656.099 193.792 656.878 192.992C657.656 192.192 658.664 191.792 659.902 191.792C661.075 191.792 662.03 192.208 662.766 193.04C663.512 193.861 663.886 194.853 663.886 196.016C663.886 196.219 663.87 196.427 663.838 196.64H657.134ZM659.902 193.104C659.155 193.104 658.536 193.317 658.046 193.744C657.555 194.16 657.251 194.72 657.134 195.424H662.478C662.36 194.667 662.062 194.091 661.582 193.696C661.102 193.301 660.542 193.104 659.902 193.104ZM674.597 192H676.053L673.573 200H672.149L670.277 194.08L668.405 200H666.981L664.501 192H665.957L667.717 198.08L669.605 192H670.949L672.837 198.096L674.597 192ZM685.246 200.208C684.04 200.208 683.038 199.808 682.238 199.008C681.438 198.197 681.038 197.195 681.038 196C681.038 194.805 681.438 193.808 682.238 193.008C683.038 192.197 684.04 191.792 685.246 191.792C686.035 191.792 686.744 191.984 687.374 192.368C688.003 192.741 688.472 193.248 688.782 193.888L687.614 194.56C687.411 194.133 687.096 193.792 686.67 193.536C686.254 193.28 685.779 193.152 685.246 193.152C684.446 193.152 683.774 193.424 683.23 193.968C682.696 194.512 682.43 195.189 682.43 196C682.43 196.8 682.696 197.472 683.23 198.016C683.774 198.56 684.446 198.832 685.246 198.832C685.779 198.832 686.259 198.709 686.686 198.464C687.112 198.208 687.438 197.867 687.662 197.44L688.846 198.128C688.504 198.757 688.014 199.264 687.374 199.648C686.734 200.021 686.024 200.208 685.246 200.208ZM690.22 200V188.32H691.612V200H690.22ZM694.44 190.544C694.173 190.544 693.949 190.453 693.768 190.272C693.586 190.091 693.496 189.872 693.496 189.616C693.496 189.36 693.586 189.141 693.768 188.96C693.949 188.768 694.173 188.672 694.44 188.672C694.696 188.672 694.914 188.768 695.096 188.96C695.277 189.141 695.368 189.36 695.368 189.616C695.368 189.872 695.277 190.091 695.096 190.272C694.914 190.453 694.696 190.544 694.44 190.544ZM693.736 200V192H695.128V200H693.736ZM701.011 200.208C699.806 200.208 698.803 199.808 698.003 199.008C697.203 198.197 696.803 197.195 696.803 196C696.803 194.805 697.203 193.808 698.003 193.008C698.803 192.197 699.806 191.792 701.011 191.792C701.801 191.792 702.51 191.984 703.139 192.368C703.769 192.741 704.238 193.248 704.547 193.888L703.379 194.56C703.177 194.133 702.862 193.792 702.435 193.536C702.019 193.28 701.545 193.152 701.011 193.152C700.211 193.152 699.539 193.424 698.995 193.968C698.462 194.512 698.195 195.189 698.195 196C698.195 196.8 698.462 197.472 698.995 198.016C699.539 198.56 700.211 198.832 701.011 198.832C701.545 198.832 702.025 198.709 702.451 198.464C702.878 198.208 703.203 197.867 703.427 197.44L704.611 198.128C704.27 198.757 703.779 199.264 703.139 199.648C702.499 200.021 701.79 200.208 701.011 200.208ZM712.754 200H711.026L707.378 196.208V200H705.986V188.8H707.378V195.536L710.834 192H712.626L708.802 195.872L712.754 200ZM714.639 194.16C714.639 194.469 714.793 194.72 715.103 194.912C715.412 195.093 715.785 195.243 716.223 195.36C716.66 195.467 717.097 195.595 717.535 195.744C717.972 195.883 718.345 196.128 718.655 196.48C718.964 196.821 719.119 197.264 719.119 197.808C719.119 198.533 718.836 199.115 718.271 199.552C717.716 199.989 717.001 200.208 716.127 200.208C715.348 200.208 714.681 200.037 714.127 199.696C713.572 199.355 713.177 198.901 712.943 198.336L714.143 197.648C714.271 198.032 714.511 198.336 714.863 198.56C715.215 198.784 715.636 198.896 716.127 198.896C716.585 198.896 716.964 198.811 717.263 198.64C717.561 198.459 717.711 198.181 717.711 197.808C717.711 197.499 717.556 197.253 717.247 197.072C716.937 196.88 716.564 196.731 716.127 196.624C715.689 196.507 715.252 196.373 714.815 196.224C714.377 196.075 714.004 195.829 713.695 195.488C713.385 195.147 713.231 194.709 713.231 194.176C713.231 193.483 713.497 192.912 714.031 192.464C714.575 192.016 715.252 191.792 716.063 191.792C716.713 191.792 717.289 191.941 717.791 192.24C718.303 192.528 718.687 192.933 718.943 193.456L717.775 194.112C717.487 193.429 716.916 193.088 716.063 193.088C715.668 193.088 715.332 193.184 715.055 193.376C714.777 193.557 714.639 193.819 714.639 194.16ZM721.475 200.176C721.187 200.176 720.942 200.075 720.739 199.872C720.536 199.669 720.435 199.424 720.435 199.136C720.435 198.848 720.536 198.603 720.739 198.4C720.942 198.197 721.187 198.096 721.475 198.096C721.774 198.096 722.019 198.197 722.211 198.4C722.414 198.603 722.515 198.848 722.515 199.136C722.515 199.424 722.414 199.669 722.211 199.872C722.019 200.075 721.774 200.176 721.475 200.176Z" fill="#141414"/>
</svg>
